<svg xmlns="http://www.w3.org/2000/svg" xmlns:svg="http://www.w3.org/2000/svg" id="svg2" width="744.094" height="1052.362" version="1.1"><defs id="defs4"><marker id="marker6259" orient="auto" overflow="visible" refX="0" refY="0"><path id="path6261" fill="#000" fill-opacity="1" fill-rule="evenodd" stroke="#000" stroke-linejoin="round" stroke-opacity="1" stroke-width=".625" d="M 8.7185878,4.0337352 L -2.2072895,0.016013256 L 8.7185884,-4.0017078 C 6.9730900,-1.6296469 6.9831476,1.6157441 8.7185878,4.0337352 z" transform="scale(1.1) rotate(180) translate(1,0)"/></marker><marker id="marker6117" orient="auto" overflow="visible" refX="0" refY="0"><path id="path6119" fill="#000" fill-opacity="1" fill-rule="evenodd" stroke="#000" stroke-linejoin="round" stroke-opacity="1" stroke-width=".625" d="M 8.7185878,4.0337352 L -2.2072895,0.016013256 L 8.7185884,-4.0017078 C 6.9730900,-1.6296469 6.9831476,1.6157441 8.7185878,4.0337352 z" transform="scale(1.1) rotate(180) translate(1,0)"/></marker><marker id="marker5981" orient="auto" overflow="visible" refX="0" refY="0"><path id="path5983" fill="#000" fill-opacity="1" fill-rule="evenodd" stroke="#000" stroke-linejoin="round" stroke-opacity="1" stroke-width=".625" d="M 8.7185878,4.0337352 L -2.2072895,0.016013256 L 8.7185884,-4.0017078 C 6.9730900,-1.6296469 6.9831476,1.6157441 8.7185878,4.0337352 z" transform="scale(1.1) rotate(180) translate(1,0)"/></marker><marker id="marker5851" orient="auto" overflow="visible" refX="0" refY="0"><path id="path5853" fill="#000" fill-opacity="1" fill-rule="evenodd" stroke="#000" stroke-linejoin="round" stroke-opacity="1" stroke-width=".625" d="M 8.7185878,4.0337352 L -2.2072895,0.016013256 L 8.7185884,-4.0017078 C 6.9730900,-1.6296469 6.9831476,1.6157441 8.7185878,4.0337352 z" transform="scale(1.1) rotate(180) translate(1,0)"/></marker><marker id="marker5727" orient="auto" overflow="visible" refX="0" refY="0"><path id="path5729" fill="#000" fill-opacity="1" fill-rule="evenodd" stroke="#000" stroke-linejoin="round" stroke-opacity="1" stroke-width=".625" d="M 8.7185878,4.0337352 L -2.2072895,0.016013256 L 8.7185884,-4.0017078 C 6.9730900,-1.6296469 6.9831476,1.6157441 8.7185878,4.0337352 z" transform="scale(1.1) rotate(180) translate(1,0)"/></marker><marker id="marker5609" orient="auto" overflow="visible" refX="0" refY="0"><path id="path5611" fill="#000" fill-opacity="1" fill-rule="evenodd" stroke="#000" stroke-linejoin="round" stroke-opacity="1" stroke-width=".625" d="M 8.7185878,4.0337352 L -2.2072895,0.016013256 L 8.7185884,-4.0017078 C 6.9730900,-1.6296469 6.9831476,1.6157441 8.7185878,4.0337352 z" transform="scale(1.1) rotate(180) translate(1,0)"/></marker><marker id="marker5497" orient="auto" overflow="visible" refX="0" refY="0"><path id="path5499" fill="#000" fill-opacity="1" fill-rule="evenodd" stroke="#000" stroke-linejoin="round" stroke-opacity="1" stroke-width=".625" d="M 8.7185878,4.0337352 L -2.2072895,0.016013256 L 8.7185884,-4.0017078 C 6.9730900,-1.6296469 6.9831476,1.6157441 8.7185878,4.0337352 z" transform="scale(1.1) rotate(180) translate(1,0)"/></marker><marker id="marker5391" orient="auto" overflow="visible" refX="0" refY="0"><path id="path5393" fill="#000" fill-opacity="1" fill-rule="evenodd" stroke="#000" stroke-linejoin="round" stroke-opacity="1" stroke-width=".625" d="M 8.7185878,4.0337352 L -2.2072895,0.016013256 L 8.7185884,-4.0017078 C 6.9730900,-1.6296469 6.9831476,1.6157441 8.7185878,4.0337352 z" transform="scale(1.1) rotate(180) translate(1,0)"/></marker><marker id="marker5291" orient="auto" overflow="visible" refX="0" refY="0"><path id="path5293" fill="#000" fill-opacity="1" fill-rule="evenodd" stroke="#000" stroke-linejoin="round" stroke-opacity="1" stroke-width=".625" d="M 8.7185878,4.0337352 L -2.2072895,0.016013256 L 8.7185884,-4.0017078 C 6.9730900,-1.6296469 6.9831476,1.6157441 8.7185878,4.0337352 z" transform="scale(1.1) rotate(180) translate(1,0)"/></marker><marker id="marker5197" orient="auto" overflow="visible" refX="0" refY="0"><path id="path5199" fill="#000" fill-opacity="1" fill-rule="evenodd" stroke="#000" stroke-linejoin="round" stroke-opacity="1" stroke-width=".625" d="M 8.7185878,4.0337352 L -2.2072895,0.016013256 L 8.7185884,-4.0017078 C 6.9730900,-1.6296469 6.9831476,1.6157441 8.7185878,4.0337352 z" transform="scale(1.1) rotate(180) translate(1,0)"/></marker><marker id="marker5109" orient="auto" overflow="visible" refX="0" refY="0"><path id="path5111" fill="#000" fill-opacity="1" fill-rule="evenodd" stroke="#000" stroke-linejoin="round" stroke-opacity="1" stroke-width=".625" d="M 8.7185878,4.0337352 L -2.2072895,0.016013256 L 8.7185884,-4.0017078 C 6.9730900,-1.6296469 6.9831476,1.6157441 8.7185878,4.0337352 z" transform="scale(1.1) rotate(180) translate(1,0)"/></marker><marker id="marker5027" orient="auto" overflow="visible" refX="0" refY="0"><path id="path5029" fill="#000" fill-opacity="1" fill-rule="evenodd" stroke="#000" stroke-linejoin="round" stroke-opacity="1" stroke-width=".625" d="M 8.7185878,4.0337352 L -2.2072895,0.016013256 L 8.7185884,-4.0017078 C 6.9730900,-1.6296469 6.9831476,1.6157441 8.7185878,4.0337352 z" transform="scale(1.1) rotate(180) translate(1,0)"/></marker><marker id="marker4951" orient="auto" overflow="visible" refX="0" refY="0"><path id="path4953" fill="#000" fill-opacity="1" fill-rule="evenodd" stroke="#000" stroke-linejoin="round" stroke-opacity="1" stroke-width=".625" d="M 8.7185878,4.0337352 L -2.2072895,0.016013256 L 8.7185884,-4.0017078 C 6.9730900,-1.6296469 6.9831476,1.6157441 8.7185878,4.0337352 z" transform="scale(1.1) rotate(180) translate(1,0)"/></marker><marker id="marker4877" orient="auto" overflow="visible" refX="0" refY="0"><path id="path4879" fill="#000" fill-opacity="1" fill-rule="evenodd" stroke="#000" stroke-linejoin="round" stroke-opacity="1" stroke-width=".625" d="M 8.7185878,4.0337352 L -2.2072895,0.016013256 L 8.7185884,-4.0017078 C 6.9730900,-1.6296469 6.9831476,1.6157441 8.7185878,4.0337352 z" transform="scale(1.1) rotate(180) translate(1,0)"/></marker><marker id="marker4813" orient="auto" overflow="visible" refX="0" refY="0"><path id="path4815" fill="#000" fill-opacity="1" fill-rule="evenodd" stroke="#000" stroke-linejoin="round" stroke-opacity="1" stroke-width=".625" d="M 8.7185878,4.0337352 L -2.2072895,0.016013256 L 8.7185884,-4.0017078 C 6.9730900,-1.6296469 6.9831476,1.6157441 8.7185878,4.0337352 z" transform="scale(1.1) rotate(180) translate(1,0)"/></marker><marker id="marker4755" orient="auto" overflow="visible" refX="0" refY="0"><path id="path4757" fill="#000" fill-opacity="1" fill-rule="evenodd" stroke="#000" stroke-linejoin="round" stroke-opacity="1" stroke-width=".625" d="M 8.7185878,4.0337352 L -2.2072895,0.016013256 L 8.7185884,-4.0017078 C 6.9730900,-1.6296469 6.9831476,1.6157441 8.7185878,4.0337352 z" transform="scale(1.1) rotate(180) translate(1,0)"/></marker><marker id="marker4703" orient="auto" overflow="visible" refX="0" refY="0"><path id="path4705" fill="#000" fill-opacity="1" fill-rule="evenodd" stroke="#000" stroke-linejoin="round" stroke-opacity="1" stroke-width=".625" d="M 8.7185878,4.0337352 L -2.2072895,0.016013256 L 8.7185884,-4.0017078 C 6.9730900,-1.6296469 6.9831476,1.6157441 8.7185878,4.0337352 z" transform="scale(1.1) rotate(180) translate(1,0)"/></marker><marker id="Arrow2Lend" orient="auto" overflow="visible" refX="0" refY="0"><path id="path4354" fill="#000" fill-opacity="1" fill-rule="evenodd" stroke="#000" stroke-linejoin="round" stroke-opacity="1" stroke-width=".625" d="M 8.7185878,4.0337352 L -2.2072895,0.016013256 L 8.7185884,-4.0017078 C 6.9730900,-1.6296469 6.9831476,1.6157441 8.7185878,4.0337352 z" transform="scale(1.1) rotate(180) translate(1,0)"/></marker><marker id="Arrow1Mend" orient="auto" overflow="visible" refX="0" refY="0"><path id="path4342" fill="#000" fill-opacity="1" fill-rule="evenodd" stroke="#000" stroke-opacity="1" stroke-width="1pt" d="M 0.0,0.0 L 5.0,-5.0 L -12.5,0.0 L 5.0,5.0 L 0.0,0.0 z" transform="scale(0.4) rotate(180) translate(10,0)"/></marker><marker id="Arrow1Lstart" orient="auto" overflow="visible" refX="0" refY="0"><path id="path4333" fill="#000" fill-opacity="1" fill-rule="evenodd" stroke="#000" stroke-opacity="1" stroke-width="1pt" d="M 0.0,0.0 L 5.0,-5.0 L -12.5,0.0 L 5.0,5.0 L 0.0,0.0 z" transform="scale(0.8) translate(12.5,0)"/></marker><marker id="Arrow1Lend" orient="auto" overflow="visible" refX="0" refY="0"><path id="path3396" fill-rule="evenodd" stroke="#000" stroke-width="1pt" marker-start="none" d="M 0.0,0.0 L 5.0,-5.0 L -12.5,0.0 L 5.0,5.0 L 0.0,0.0 z" transform="scale(0.8) rotate(180) translate(12.5,0)"/></marker></defs><metadata id="metadata7"/><g id="layer1"><rect id="rect3356" width="149.92" height="38.945" x="120.444" y="183.417" fill="#0f0" fill-opacity="1" stroke="#000" stroke-dasharray="none" stroke-linecap="round" stroke-linejoin="round" stroke-miterlimit="4" stroke-opacity="1" stroke-width="2.055"/><rect id="rect3358" width="149.92" height="38.945" x="319.566" y="233.39" fill="#0f0" fill-opacity="1" stroke="#000" stroke-dasharray="none" stroke-linecap="round" stroke-linejoin="round" stroke-miterlimit="4" stroke-opacity="1" stroke-width="2.055"/><path id="path3360" fill="#00beff" fill-opacity="1" stroke="#000" stroke-dasharray="none" stroke-linecap="round" stroke-linejoin="round" stroke-miterlimit="4" stroke-opacity="1" stroke-width="1.918" d="M 291.1025 343.07648 A 60.031075 33.784649 0 1 1 171.04035,343.07648 A 60.031075 33.784649 0 1 1 291.1025 343.07648 z" transform="matrix(1.2455534,0,0,0.5681105,-92.407961,67.456834)"/><path id="path3362" fill="#00beff" fill-opacity="1" stroke="#000" stroke-dasharray="none" stroke-linecap="round" stroke-linejoin="round" stroke-miterlimit="4" stroke-opacity="1" stroke-width="1.918" d="M 291.1025 343.07648 A 60.031075 33.784649 0 1 1 171.04035,343.07648 A 60.031075 33.784649 0 1 1 291.1025 343.07648 z" transform="matrix(1.2455534,0,0,0.5681105,-92.407961,127.45683)"/><path id="path3364" fill="#00beff" fill-opacity="1" stroke="#000" stroke-dasharray="none" stroke-linecap="round" stroke-linejoin="round" stroke-miterlimit="4" stroke-opacity="1" stroke-width="1.918" d="M 291.1025 343.07648 A 60.031075 33.784649 0 1 1 171.04035,343.07648 A 60.031075 33.784649 0 1 1 291.1025 343.07648 z" transform="matrix(1.2455534,0,0,0.5681105,-92.407961,187.45683)"/><text id="text3384" x="151.702" y="215.19" fill="#000" fill-opacity="1" stroke="none" font-family="Bitter" font-size="40" font-stretch="normal" font-style="normal" font-variant="normal" font-weight="bold" xml:space="preserve" style="-inkscape-font-specification:'Bitter Bold'"><tspan style="-inkscape-font-specification:'Bitter Bold'" id="tspan3386" x="151.702" y="215.19" font-family="Bitter" font-stretch="normal" font-style="normal" font-variant="normal" font-weight="bold">4.2.0</tspan></text><path id="path3388" fill="none" stroke="#000" stroke-dasharray="none" stroke-linecap="butt" stroke-linejoin="miter" stroke-miterlimit="4" stroke-opacity="1" stroke-width="1" marker-end="url(#marker4877)" marker-start="none" d="m 195.40384,222.36217 0,19.52936"/><path id="path3608" fill="none" stroke="#000" stroke-dasharray="none" stroke-linecap="butt" stroke-linejoin="miter" stroke-miterlimit="4" stroke-opacity="1" stroke-width="1" marker-end="url(#marker6259)" d="m 195.40384,281.5556 0,20.29555"/><path id="path3612" fill="none" stroke="#000" stroke-dasharray="none" stroke-linecap="butt" stroke-linejoin="miter" stroke-miterlimit="4" stroke-opacity="1" stroke-width="1" marker-end="url(#marker4813)" d="m 195.40384,341.55559 0,19.98271"/><path id="path3614" fill="none" stroke="#000" stroke-linecap="butt" stroke-linejoin="miter" stroke-opacity="1" stroke-width="1" marker-end="url(#marker6117)" d="m 270.3639,221.70204 49.20214,12.34793"/><rect id="rect3616" width="149.92" height="38.945" x="319.566" y="293.39" fill="#0f0" fill-opacity="1" stroke="#000" stroke-dasharray="none" stroke-linecap="round" stroke-linejoin="round" stroke-miterlimit="4" stroke-opacity="1" stroke-width="2.055"/><rect id="rect3618" width="149.92" height="38.945" x="319.566" y="352.569" fill="#0f0" fill-opacity="1" stroke="#000" stroke-dasharray="none" stroke-linecap="round" stroke-linejoin="round" stroke-miterlimit="4" stroke-opacity="1" stroke-width="2.055"/><text id="text3620" x="352.785" y="266.993" fill="#000" fill-opacity="1" stroke="none" font-family="Bitter" font-size="40" font-stretch="normal" font-style="normal" font-variant="normal" font-weight="bold" xml:space="preserve" style="-inkscape-font-specification:'Bitter Bold'"><tspan id="tspan3622" x="352.785" y="266.993">4.2.1</tspan></text><text id="text3624" x="352.125" y="326.993" fill="#000" fill-opacity="1" stroke="none" font-family="Bitter" font-size="40" font-stretch="normal" font-style="normal" font-variant="normal" font-weight="bold" xml:space="preserve" style="-inkscape-font-specification:'Bitter Bold'"><tspan id="tspan3626" x="352.125" y="326.993">4.2.2</tspan></text><text id="text3628" x="352.725" y="386.172" fill="#000" fill-opacity="1" stroke="none" font-family="Bitter" font-size="40" font-stretch="normal" font-style="normal" font-variant="normal" font-weight="bold" xml:space="preserve" style="-inkscape-font-specification:'Bitter Bold'"><tspan id="tspan3630" x="352.725" y="386.172">4.2.3</tspan></text><text id="text3632" x="137.419" y="272.254" fill="#000" fill-opacity="1" stroke="none" font-family="Bitter" font-size="28" font-stretch="normal" font-style="normal" font-variant="normal" font-weight="bold" xml:space="preserve" style="-inkscape-font-specification:'Bitter Bold'"><tspan id="tspan3634" x="137.419" y="272.254">4.3.0-rc1</tspan></text><text id="text3636" x="136.957" y="332.254" fill="#000" fill-opacity="1" stroke="none" font-family="Bitter" font-size="28" font-stretch="normal" font-style="normal" font-variant="normal" font-weight="bold" xml:space="preserve" style="-inkscape-font-specification:'Bitter Bold'"><tspan id="tspan3638" x="136.957" y="332.254">4.3.0-rc2</tspan></text><text id="text3640" x="137.377" y="392.254" fill="#000" fill-opacity="1" stroke="none" font-family="Bitter" font-size="28" font-stretch="normal" font-style="normal" font-variant="normal" font-weight="bold" xml:space="preserve" style="-inkscape-font-specification:'Bitter Bold'"><tspan id="tspan3642" x="137.377" y="392.254">4.3.0-rc3</tspan></text><path id="path3644" fill="#00beff" fill-opacity="1" stroke="#000" stroke-dasharray="none" stroke-linecap="round" stroke-linejoin="round" stroke-miterlimit="4" stroke-opacity="1" stroke-width="1.918" d="M 291.1025 343.07648 A 60.031075 33.784649 0 1 1 171.04035,343.07648 A 60.031075 33.784649 0 1 1 291.1025 343.07648 z" transform="matrix(1.2455534,0,0,0.5681105,-92.407961,247.45683)"/><path id="path3646" fill="#00beff" fill-opacity="1" stroke="#000" stroke-dasharray="none" stroke-linecap="round" stroke-linejoin="round" stroke-miterlimit="4" stroke-opacity="1" stroke-width="1.918" d="M 291.1025 343.07648 A 60.031075 33.784649 0 1 1 171.04035,343.07648 A 60.031075 33.784649 0 1 1 291.1025 343.07648 z" transform="matrix(1.2455534,0,0,0.5681105,-92.407961,307.45683)"/><text id="text3648" x="136.257" y="452.254" fill="#000" fill-opacity="1" stroke="none" font-family="Bitter" font-size="28" font-stretch="normal" font-style="normal" font-variant="normal" font-weight="bold" xml:space="preserve" style="-inkscape-font-specification:'Bitter Bold'"><tspan id="tspan3650" x="136.257" y="452.254">4.3.0-rc4</tspan></text><text id="text3652" x="137.517" y="512.162" fill="#000" fill-opacity="1" stroke="none" font-family="Bitter" font-size="28" font-stretch="normal" font-style="normal" font-variant="normal" font-weight="bold" xml:space="preserve" style="-inkscape-font-specification:'Bitter Bold'"><tspan id="tspan3654" x="137.517" y="512.162">4.3.0-rc5</tspan></text><path id="path2196" fill="none" stroke="#000" stroke-dasharray="none" stroke-linecap="butt" stroke-linejoin="miter" stroke-miterlimit="4" stroke-opacity="1" stroke-width="1" marker-end="url(#marker4755)" d="m 195.40384,401.55559 0,19.98271"/><path id="path4139" fill="none" stroke="#000" stroke-dasharray="none" stroke-linecap="butt" stroke-linejoin="miter" stroke-miterlimit="4" stroke-opacity="1" stroke-width="1" marker-end="url(#Arrow2Lend)" d="m 195.40384,461.55559 0,20.04851"/><path id="path4141" fill="#00beff" fill-opacity="1" stroke="#000" stroke-dasharray="none" stroke-linecap="round" stroke-linejoin="round" stroke-miterlimit="4" stroke-opacity="1" stroke-width="1.918" d="M 291.1025 343.07648 A 60.031075 33.784649 0 1 1 171.04035,343.07648 A 60.031075 33.784649 0 1 1 291.1025 343.07648 z" transform="matrix(1.2455534,0,0,0.5681105,-92.407961,367.45683)"/><text id="text4143" x="136.467" y="572.162" fill="#000" fill-opacity="1" stroke="none" font-family="Bitter" font-size="28" font-stretch="normal" font-style="normal" font-variant="normal" font-weight="bold" xml:space="preserve" style="-inkscape-font-specification:'Bitter Bold'"><tspan id="tspan4145" x="136.467" y="572.162">4.3.0-rc6</tspan></text><path id="path4147" fill="#00beff" fill-opacity="1" stroke="#000" stroke-dasharray="none" stroke-linecap="round" stroke-linejoin="round" stroke-miterlimit="4" stroke-opacity="1" stroke-width="1.918" d="M 291.1025 343.07648 A 60.031075 33.784649 0 1 1 171.04035,343.07648 A 60.031075 33.784649 0 1 1 291.1025 343.07648 z" transform="matrix(1.2455534,0,0,0.5681105,-92.407961,427.45683)"/><text id="text4149" x="137.447" y="632.254" fill="#000" fill-opacity="1" stroke="none" font-family="Bitter" font-size="28" font-stretch="normal" font-style="normal" font-variant="normal" font-weight="bold" xml:space="preserve" style="-inkscape-font-specification:'Bitter Bold'"><tspan id="tspan4151" x="137.447" y="632.254">4.3.0-rc7</tspan></text><path id="path4159" fill="none" stroke="#000" stroke-dasharray="none" stroke-linecap="butt" stroke-linejoin="miter" stroke-miterlimit="4" stroke-opacity="1" stroke-width="1" marker-end="url(#marker4703)" d="m 195.40384,521.55559 0,19.8838"/><path id="path4163" fill="none" stroke="#000" stroke-dasharray="none" stroke-linecap="butt" stroke-linejoin="miter" stroke-miterlimit="4" stroke-opacity="1" stroke-width="1" marker-end="url(#marker4951)" d="m 195.40384,581.55559 0,19.8838"/><rect id="rect4167" width="149.92" height="38.945" x="120.444" y="663.417" fill="#0f0" fill-opacity="1" stroke="#000" stroke-dasharray="none" stroke-linecap="round" stroke-linejoin="round" stroke-miterlimit="4" stroke-opacity="1" stroke-width="2.055"/><text id="text4169" x="150.53" y="696.89" fill="#000" fill-opacity="1" stroke="none" font-family="Bitter" font-size="40" font-stretch="normal" font-style="normal" font-variant="normal" font-weight="bold" xml:space="preserve" style="-inkscape-font-specification:'Bitter Bold'"><tspan id="tspan4171" x="150.53" y="696.89">4.3.0</tspan></text><path id="path4173" fill="none" stroke="#000" stroke-dasharray="none" stroke-linecap="butt" stroke-linejoin="miter" stroke-miterlimit="4" stroke-opacity="1" stroke-width="1" marker-end="url(#marker5027)" d="m 195.40384,641.05 0,20.71579"/><rect id="rect4175" width="149.92" height="38.945" x="319.566" y="413.417" fill="#0f0" fill-opacity="1" stroke="#000" stroke-dasharray="none" stroke-linecap="round" stroke-linejoin="round" stroke-miterlimit="4" stroke-opacity="1" stroke-width="2.055"/><text id="text4177" x="351.125" y="447.021" fill="#000" fill-opacity="1" stroke="none" font-family="Bitter" font-size="40" font-stretch="normal" font-style="normal" font-variant="normal" font-weight="bold" xml:space="preserve" style="-inkscape-font-specification:'Bitter Bold'"><tspan id="tspan4179" x="351.125" y="447.021">4.2.4</tspan></text><rect id="rect4193" width="149.92" height="38.945" x="319.566" y="473.39" fill="#0f0" fill-opacity="1" stroke="#000" stroke-dasharray="none" stroke-linecap="round" stroke-linejoin="round" stroke-miterlimit="4" stroke-opacity="1" stroke-width="2.055"/><text id="text4195" x="352.925" y="506.862" fill="#000" fill-opacity="1" stroke="none" font-family="Bitter" font-size="40" font-stretch="normal" font-style="normal" font-variant="normal" font-weight="bold" xml:space="preserve" style="-inkscape-font-specification:'Bitter Bold'"><tspan id="tspan4197" x="352.925" y="506.862">4.2.5</tspan></text><rect id="rect4205" width="149.92" height="38.945" x="319.566" y="533.39" fill="#0f0" fill-opacity="1" stroke="#000" stroke-dasharray="none" stroke-linecap="round" stroke-linejoin="round" stroke-miterlimit="4" stroke-opacity="1" stroke-width="2.055"/><text id="text4207" x="351.425" y="566.862" fill="#000" fill-opacity="1" stroke="none" font-family="Bitter" font-size="40" font-stretch="normal" font-style="normal" font-variant="normal" font-weight="bold" xml:space="preserve" style="-inkscape-font-specification:'Bitter Bold'"><tspan id="tspan4209" x="351.425" y="566.862">4.2.6</tspan></text><rect id="rect4211" width="149.92" height="38.945" x="321.028" y="721.541" fill="#0f0" fill-opacity="1" stroke="#000" stroke-dasharray="none" stroke-linecap="round" stroke-linejoin="round" stroke-miterlimit="4" stroke-opacity="1" stroke-width="2.055"/><text id="text4213" x="353.074" y="755.013" fill="#000" fill-opacity="1" stroke="none" font-family="Bitter" font-size="40" font-stretch="normal" font-style="normal" font-variant="normal" font-weight="bold" xml:space="preserve" style="-inkscape-font-specification:'Bitter Bold'"><tspan id="tspan4215" x="353.074" y="755.013">4.3.1</tspan></text><path id="path4217" fill="none" stroke="#000" stroke-dasharray="none" stroke-linecap="butt" stroke-linejoin="miter" stroke-miterlimit="4" stroke-opacity="1" stroke-width="1" marker-end="url(#marker5291)" d="m 270.82291,701.93896 49.74573,20.1598"/><path id="path4219" fill="none" stroke="#000" stroke-dasharray="none" stroke-linecap="butt" stroke-linejoin="miter" stroke-miterlimit="4" stroke-opacity="1" stroke-width="1" marker-end="url(#marker5981)" d="m 394.5261,272.33453 0,19.74039"/><path id="path4227" fill="none" stroke="#000" stroke-dasharray="none" stroke-linecap="butt" stroke-linejoin="miter" stroke-miterlimit="4" stroke-opacity="1" stroke-width="1" marker-end="url(#marker5851)" d="m 394.5261,332.33453 0,18.75956"/><path id="path4229" fill="none" stroke="#000" stroke-dasharray="none" stroke-linecap="butt" stroke-linejoin="miter" stroke-miterlimit="4" stroke-opacity="1" stroke-width="1" marker-end="url(#marker5727)" d="m 394.5261,391.5133 0,20.09059"/><path id="path4231" fill="none" stroke="#000" stroke-dasharray="none" stroke-linecap="butt" stroke-linejoin="miter" stroke-miterlimit="4" stroke-opacity="1" stroke-width="1" marker-end="url(#marker5609)" d="m 394.5261,452.36217 0,19.71289"/><path id="path4233" fill="none" stroke="#000" stroke-dasharray="none" stroke-linecap="butt" stroke-linejoin="miter" stroke-miterlimit="4" stroke-opacity="1" stroke-width="1" marker-end="url(#marker5497)" d="m 394.5261,512.33453 0,19.57603"/><path id="path4235" fill="#00beff" fill-opacity="1" stroke="#000" stroke-dasharray="none" stroke-linecap="round" stroke-linejoin="round" stroke-miterlimit="4" stroke-opacity="1" stroke-width="1.918" d="M 291.1025 343.07648 A 60.031075 33.784649 0 1 1 171.04035,343.07648 A 60.031075 33.784649 0 1 1 291.1025 343.07648 z" transform="matrix(1.2455534,0,0,0.5681105,-92.407961,550.90458)"/><text id="text4237" x="139.863" y="754.181" fill="#000" fill-opacity="1" stroke="none" font-family="Bitter" font-size="24" font-stretch="normal" font-style="normal" font-variant="normal" font-weight="bold" xml:space="preserve" style="-inkscape-font-specification:'Bitter Bold'"><tspan id="tspan4239" x="139.863" y="754.181">4.4.0-rc1</tspan></text><path id="path4243" fill="none" stroke="#000" stroke-dasharray="none" stroke-linecap="butt" stroke-linejoin="miter" stroke-miterlimit="4" stroke-opacity="1" stroke-width="1" marker-end="url(#marker5109)" d="m 195.40384,702.36217 0,23.2577"/><path id="path2226" fill="none" stroke="#000" stroke-dasharray="none" stroke-linecap="butt" stroke-linejoin="miter" stroke-miterlimit="4" stroke-opacity="1" stroke-width="1" marker-end="url(#marker5391)" d="m 394.5,761.34695 0,20.38277"/><path id="path2230" fill="none" stroke="#000" stroke-dasharray="none" stroke-linecap="butt" stroke-linejoin="miter" stroke-miterlimit="4" stroke-opacity="1" stroke-width="1" marker-end="url(#marker5197)" marker-start="none" d="m 195.44307,764.5464 -0.47266,18.17431"/></g></svg>